<svg width="106" height="21" viewBox="0 0 106 21" fill="none" xmlns="http://www.w3.org/2000/svg">
<path fill-rule="evenodd" clip-rule="evenodd" d="M32.5944 5.49533V4.21556C32.5922 4.13199 32.6233 4.05095 32.6808 3.99025C32.7383 3.92956 32.8175 3.89418 32.9011 3.89188H38.5272C38.5679 3.89033 38.6084 3.89682 38.6466 3.91097C38.6847 3.92513 38.7197 3.94667 38.7495 3.97437C38.7793 4.00206 38.8034 4.03537 38.8203 4.07238C38.8372 4.10939 38.8466 4.14937 38.848 4.19003C38.8486 4.197 38.8486 4.20396 38.8486 4.21066V5.30602C38.7803 5.6063 38.6362 5.88406 38.43 6.11277L35.5099 10.341C36.6179 10.2791 37.7217 10.5215 38.7075 11.043C38.7959 11.0931 38.8697 11.1653 38.9217 11.2526C38.9738 11.3399 39.0021 11.4392 39.0041 11.5408V12.9054C39.0095 13.0733 38.8811 13.2134 38.717 13.2188C38.6736 13.2201 38.6304 13.2118 38.5906 13.1943C37.6779 12.7123 36.6613 12.4603 35.629 12.4603C34.5968 12.4603 33.5802 12.7123 32.6674 13.1943C32.4727 13.299 32.2684 13.0849 32.2684 12.8956V11.6009C32.2507 11.2945 32.3235 10.9897 32.4776 10.7243L35.8506 5.80405H32.9302C32.7561 5.81256 32.6076 5.67458 32.5993 5.49584V5.49043L32.5944 5.49559V5.49533ZM9.77145 13.2214C9.69212 13.2181 9.61666 13.1862 9.55905 13.1316C9.50143 13.077 9.46556 13.0033 9.45808 12.9243V3.88853C9.45872 3.84476 9.468 3.80155 9.48538 3.76137C9.50276 3.7212 9.5279 3.68485 9.55937 3.65442C9.59083 3.62398 9.628 3.60006 9.66873 3.58403C9.70946 3.56799 9.75296 3.56016 9.79672 3.56098H11.4487C11.5306 3.56433 11.6086 3.59736 11.6681 3.65392C11.7275 3.71047 11.7644 3.7867 11.7718 3.86841V5.04708H11.8023C11.949 4.54893 12.2578 4.11397 12.6796 3.81107C13.1015 3.50816 13.6123 3.35463 14.1312 3.37477C15.2377 3.37477 15.9345 3.90349 16.4297 5.04708C16.9525 3.70077 18.4706 3.03174 19.821 3.55273C20.2546 3.7197 20.636 3.99903 20.9259 4.36206C21.4866 5.12239 21.3703 6.22548 21.3703 7.19265V12.899C21.369 12.9427 21.359 12.9857 21.3411 13.0255C21.3231 13.0654 21.2975 13.1013 21.2656 13.1313C21.2338 13.1612 21.1963 13.1846 21.1554 13.2C21.1145 13.2155 21.071 13.2227 21.0273 13.2214H19.2588C19.1749 13.2176 19.0954 13.1824 19.0364 13.1226C18.9774 13.0628 18.9432 12.9829 18.9405 12.899V8.10928C18.9668 7.54445 18.9501 6.9791 18.89 6.41685C18.8558 6.17576 18.7273 5.95809 18.5328 5.81162C18.3382 5.66515 18.0935 5.60186 17.8524 5.63563L17.8493 5.63615C17.6203 5.64344 17.3985 5.71739 17.2109 5.84891C17.0234 5.98044 16.8782 6.16384 16.7934 6.37662C16.6455 6.94154 16.5893 7.52653 16.6268 8.10928V12.8987C16.6261 12.9418 16.6169 12.9843 16.5998 13.0239C16.5827 13.0634 16.5579 13.0992 16.5269 13.1291C16.496 13.1591 16.4594 13.1826 16.4193 13.1984C16.3792 13.2142 16.3364 13.2219 16.2933 13.2211H14.5201C14.4362 13.2174 14.3568 13.1821 14.2978 13.1223C14.2388 13.0625 14.2045 12.9827 14.2019 12.8987V8.10928C14.2019 7.10187 14.3685 5.61603 13.1158 5.61603C11.8629 5.61603 11.8933 7.06163 11.8933 8.10928V12.8987C11.8927 12.9418 11.8835 12.9843 11.8665 13.0239C11.8494 13.0635 11.8247 13.0993 11.7938 13.1293C11.7628 13.1593 11.7263 13.1829 11.6863 13.1988C11.6462 13.2147 11.6034 13.2225 11.5603 13.2219C11.5552 13.2219 11.5498 13.2219 11.5446 13.2214H9.77145ZM43.5096 3.37322C46.1405 3.37322 47.5573 5.57219 47.5573 8.36899C47.5573 11.0771 45.9889 13.2219 43.5096 13.2219C40.9294 13.2219 39.5227 11.018 39.5227 8.28027C39.5227 5.54253 40.9294 3.37322 43.4946 3.37322H43.5096ZM42.1145 8.00921C42.1145 9.09244 42.1145 11.4077 43.5065 11.4077C44.8984 11.4077 44.9598 9.53786 44.9598 8.4002C44.99 7.60867 44.9005 6.81662 44.6936 6.05062C44.5802 5.52112 44.0798 5.15411 43.5217 5.1897C42.2014 5.1897 42.1145 6.92597 42.1145 8.00921ZM51.0417 13.201H49.4073C49.2448 13.1956 49.1148 13.0548 49.1122 12.8802V3.85707C49.1292 3.68607 49.2659 3.55789 49.4261 3.56124H50.9478C51.0876 3.56949 51.207 3.67266 51.2431 3.81709V5.19048H51.2712C51.7393 3.96229 52.3764 3.3758 53.5096 3.3758C54.279 3.33582 55.0094 3.73946 55.4249 4.4335C55.851 5.1505 55.851 6.36346 55.851 7.23573V12.9402C55.8293 13.1063 55.6936 13.2281 55.5371 13.2211H53.8934C53.7446 13.2154 53.621 13.0978 53.5986 12.9402V8.05795C53.5986 7.05519 53.7056 5.63176 52.5729 5.63176C52.1556 5.65498 51.7896 5.93739 51.6364 6.35341C51.431 6.89706 51.3416 7.47769 51.3741 8.05795V12.9003C51.3666 13.0852 51.2201 13.2296 51.0473 13.2216L51.0417 13.2211V13.201ZM29.8038 13.0741C29.7476 13.1222 29.6779 13.1518 29.6043 13.1588C29.5307 13.1658 29.4567 13.1499 29.3924 13.1133C28.9951 12.7941 28.6593 12.4052 28.4015 11.9656C28.0549 12.3832 27.6153 12.7139 27.118 12.9312C26.6206 13.1484 26.0793 13.2462 25.5374 13.2167C24.0511 13.2167 22.9361 12.3205 22.9361 10.5324C22.9049 9.3029 23.643 8.18278 24.7892 7.71983C25.7306 7.31104 27.0485 7.22721 28.0544 7.12405V6.89709C28.1097 6.4698 28.0355 6.03574 27.8414 5.65111C27.7255 5.50094 27.5746 5.38152 27.4018 5.30336C27.229 5.2252 27.0397 5.19068 26.8504 5.20286C26.1889 5.14921 25.5903 5.59205 25.4531 6.23709C25.4441 6.31547 25.4096 6.38874 25.3551 6.4457C25.3005 6.50267 25.2287 6.54018 25.1508 6.55251L23.4713 6.37507C23.3909 6.35877 23.3202 6.31127 23.2747 6.24297C23.2292 6.17467 23.2126 6.09113 23.2286 6.01064C23.6149 3.98602 25.4582 3.37554 27.113 3.37554C28.0559 3.34328 28.9795 3.64702 29.7192 4.23259C30.5616 5.01561 30.4824 6.0599 30.4824 7.18801V9.87237C30.4909 10.4678 30.7245 11.038 31.1362 11.4683C31.1955 11.5288 31.2287 11.6102 31.2287 11.6949C31.2287 11.7796 31.1955 11.861 31.1362 11.9215C30.7795 12.2171 30.1453 12.7587 29.8036 13.0692V13.0741H29.8038ZM28.0993 8.91474V8.55676C26.8453 8.55676 25.5271 8.81106 25.5271 10.2154C25.5271 10.927 25.9122 11.4077 26.5789 11.4077C27.0947 11.3902 27.5582 11.1024 27.7833 10.6585C28.0572 10.1208 28.167 9.51456 28.0993 8.915V8.91474ZM6.97567 13.0744C6.91941 13.1219 6.84998 13.1511 6.77667 13.1582C6.70335 13.1652 6.62963 13.1498 6.56533 13.1138C6.17052 12.7927 5.8358 12.4041 5.57675 11.9661C5.23186 12.3827 4.79428 12.7127 4.29902 12.9299C3.80376 13.1471 3.26454 13.2454 2.72449 13.217C1.26625 13.2172 0.129372 12.321 0.129372 10.5329C0.110461 9.93078 0.277882 9.33752 0.608766 8.83413C0.93965 8.33074 1.41786 7.94177 1.97809 7.72034C2.91741 7.31155 4.22709 7.22773 5.23553 7.12431V6.8976C5.2885 6.47042 5.21459 6.0371 5.02301 5.65162C4.90645 5.50289 4.75571 5.38448 4.58361 5.30645C4.41151 5.22841 4.22312 5.19305 4.03443 5.20337C3.71688 5.17814 3.40096 5.2691 3.14545 5.45934C2.88993 5.64958 2.7122 5.92615 2.64531 6.2376C2.63651 6.31593 2.60225 6.38921 2.54779 6.44619C2.49332 6.50317 2.42167 6.54071 2.34381 6.55303L0.663252 6.37559C0.584748 6.35699 0.516586 6.30852 0.473244 6.24047C0.429903 6.17242 0.414795 6.09016 0.43113 6.01116C0.816452 3.98602 2.65537 3.37554 4.30602 3.37554C5.24861 3.34236 6.17218 3.64622 6.91094 4.23259C7.75637 5.01587 7.6723 6.06016 7.6723 7.18827V9.87263C7.68056 10.4679 7.91366 11.038 8.32481 11.4686C8.45042 11.5898 8.45377 11.7892 8.33229 11.9143L8.32481 11.9217C7.97405 12.2173 7.33623 12.7592 7.00017 13.0695L6.97541 13.0744H6.97567ZM5.29356 8.55676C4.04114 8.55676 2.71959 8.81106 2.71959 10.2154C2.71959 10.927 3.10904 11.4077 3.76981 11.4077C4.2828 11.3871 4.74292 11.099 4.96808 10.6585C5.24484 10.1217 5.35801 9.51549 5.29356 8.915V8.5565V8.55676ZM22.7914 20.7375C17.3453 20.7679 12.0842 18.6471 8.03647 14.7877C7.72852 14.4986 8.00165 14.0988 8.36918 14.325C12.8767 17.0454 17.9762 18.4722 23.1641 18.4645C27.0318 18.4446 30.8574 17.6172 34.4228 16.029C34.9541 15.7819 35.4157 16.4133 34.8746 16.8337C31.6069 19.3798 26.8739 20.7375 22.7914 20.7375ZM36.1712 15.2671C35.7461 14.7152 33.3584 15.0041 32.2857 15.1384C31.9569 15.174 31.9066 14.8854 32.1998 14.6791C34.1071 13.3181 37.2286 13.7099 37.5928 14.1635C37.957 14.6175 37.4966 17.8035 35.7108 19.3192C35.4325 19.5565 35.1743 19.4275 35.2961 19.1232C35.6958 18.1075 36.5959 15.8242 36.1712 15.2674V15.2671ZM91.1804 11.7208C91.5131 11.4897 91.7029 11.1127 91.6846 10.7176C91.6905 10.5847 91.6674 10.4522 91.6169 10.3292C91.5664 10.2061 91.4897 10.0956 91.3921 10.0052C91.0701 9.75531 90.7041 9.56794 90.313 9.45275L88.6892 8.8709C87.2823 8.38628 86.5707 7.51401 86.5707 6.30724C86.5462 5.54897 86.9052 4.82579 87.5345 4.36825C88.2637 3.855 89.1532 3.59709 90.0559 3.63655C90.8825 3.63655 91.7024 3.77943 92.4764 4.05824C92.6008 4.0904 92.7141 4.15575 92.8042 4.24729C92.8723 4.35484 92.904 4.48018 92.8945 4.60579V5.09066C92.8945 5.3086 92.8145 5.42002 92.6479 5.42002C92.4982 5.40899 92.3507 5.37803 92.2092 5.32794C91.5405 5.13469 90.8479 5.03683 90.1518 5.03728C88.9314 5.03728 88.316 5.42982 88.316 6.22471C88.3085 6.3649 88.3323 6.505 88.3855 6.63492C88.4387 6.76483 88.52 6.88133 88.6237 6.97601C88.988 7.24103 89.3936 7.44407 89.824 7.57694L91.3367 8.12449C91.9405 8.33095 92.4855 8.68018 92.9254 9.14248C93.2726 9.56046 93.4523 10.0924 93.4297 10.6353C93.4604 11.4392 93.0841 12.2085 92.4212 12.6999C91.6379 13.2505 90.6816 13.5239 89.7131 13.4759C88.7293 13.4891 87.752 13.3145 86.8335 12.9617C86.7155 12.9204 86.6085 12.8524 86.5209 12.7631C86.4571 12.6584 86.4271 12.5365 86.4351 12.4141V11.9009C86.4351 11.6821 86.5109 11.5707 86.662 11.5707C86.8258 11.5875 86.9868 11.6249 87.1412 11.6821C87.9879 11.9397 88.8684 12.0688 89.7534 12.0651C90.2537 12.0994 90.7523 11.9775 91.1804 11.7162V11.7208ZM82.7753 4.01078C82.7634 3.92347 82.7865 3.835 82.8396 3.76468C82.8927 3.69437 82.9715 3.64793 83.0587 3.63552C83.0886 3.63165 83.1186 3.63165 83.1485 3.63603H84.2431C84.2861 3.63008 84.33 3.6327 84.372 3.64374C84.4141 3.65478 84.4536 3.67402 84.4882 3.70036C84.5228 3.7267 84.5518 3.75961 84.5737 3.79722C84.5955 3.83482 84.6097 3.87637 84.6155 3.91948C84.6199 3.94991 84.6199 3.98086 84.616 4.01078V12.8092C84.6426 12.9926 84.518 13.1626 84.3382 13.1891C84.3066 13.1941 84.2744 13.1941 84.2428 13.1891H83.4425C83.3423 13.1945 83.2429 13.1683 83.1583 13.1143C83.0764 13.0411 83.0255 12.9393 83.0159 12.8299L82.8882 12.1696C81.8831 12.9868 80.6344 13.4459 79.3394 13.4744C78.9649 13.5006 78.5892 13.4469 78.2372 13.3167C77.8851 13.1866 77.5648 12.983 77.2975 12.7195C76.7972 12.1251 76.5441 11.3615 76.5903 10.586V4.01052C76.5785 3.92312 76.6018 3.83461 76.655 3.76431C76.7083 3.69401 76.7872 3.64762 76.8745 3.63526C76.9041 3.63119 76.9342 3.63137 76.9637 3.63578H78.0583C78.1091 3.62862 78.1609 3.6334 78.2095 3.64974C78.2581 3.66608 78.3023 3.69352 78.3384 3.72989C78.3746 3.76626 78.4018 3.81056 78.4179 3.85927C78.4339 3.90798 78.4384 3.95977 78.431 4.01052V10.0062C78.3879 10.5353 78.5247 11.0635 78.8191 11.5052C78.9739 11.6795 79.1672 11.8154 79.3836 11.9021C79.6 11.9889 79.8336 12.024 80.0659 12.0048C81.0325 11.9779 81.9691 11.6633 82.7559 11.1011L82.7753 4.01052V4.01078ZM72.7866 13.2183C72.7433 13.2245 72.6992 13.2221 72.6569 13.2112C72.6146 13.2003 72.5748 13.1812 72.5399 13.155C72.505 13.1287 72.4755 13.0958 72.4534 13.0582C72.4312 13.0205 72.4166 12.9789 72.4105 12.9356C72.4054 12.9036 72.4054 12.8711 72.4105 12.8386V6.73151C72.4477 6.2387 72.3225 5.74728 72.0541 5.33233C71.9153 5.17442 71.7412 5.05142 71.5461 4.97328C71.3509 4.89513 71.14 4.86404 70.9306 4.88253C69.9521 4.9037 68.9991 5.19796 68.1789 5.73209C68.1869 5.82494 68.1869 5.91882 68.1789 6.01193V12.8384C68.1865 12.8897 68.1821 12.9421 68.1659 12.9914C68.1497 13.0407 68.1222 13.0856 68.0857 13.1224C68.0491 13.1593 68.0045 13.1871 67.9553 13.2037C67.9062 13.2203 67.8538 13.2252 67.8024 13.218H66.6993C66.656 13.2242 66.612 13.2218 66.5697 13.2109C66.5273 13.2001 66.4876 13.181 66.4526 13.1547C66.4177 13.1285 66.3883 13.0956 66.3661 13.0579C66.3439 13.0203 66.3293 12.9786 66.3233 12.9353C66.3181 12.9034 66.3181 12.8709 66.3233 12.8384V6.73151C66.3593 6.23947 66.236 5.74892 65.9717 5.33233C65.8324 5.17512 65.6582 5.0526 65.4632 4.97451C65.2682 4.89642 65.0576 4.86493 64.8483 4.88253C63.8751 4.88887 62.9247 5.17696 62.1118 5.71198V12.8381C62.1248 12.9257 62.1025 13.0149 62.0498 13.0861C61.9971 13.1573 61.9183 13.2046 61.8307 13.2178C61.8007 13.2221 61.7704 13.2222 61.7404 13.218H60.6319C60.5808 13.2245 60.529 13.2191 60.4804 13.2022C60.4318 13.1853 60.3878 13.1574 60.3518 13.1206C60.3158 13.0838 60.2888 13.0392 60.273 12.9902C60.2571 12.9412 60.2529 12.8893 60.2605 12.8384V4.0376C60.2476 3.95146 60.2693 3.86371 60.3209 3.79351C60.3724 3.7233 60.4496 3.67633 60.5357 3.66286C60.5676 3.65784 60.6 3.65784 60.6319 3.66286H61.4631C61.5642 3.6577 61.6643 3.68375 61.7502 3.73765C61.832 3.80935 61.8833 3.90916 61.8939 4.01775L62.0027 4.62229C63.0152 3.85757 64.2386 3.42316 65.5067 3.37812C66.6691 3.37812 67.4514 3.82276 67.8674 4.71721C68.9274 3.88483 70.2269 3.41536 71.5741 3.37812C72.3066 3.33195 73.0246 3.59838 73.5536 4.11266C74.047 4.69448 74.2955 5.44507 74.2466 6.2064V12.8381C74.2542 12.8894 74.2497 12.9418 74.2335 12.9911C74.2174 13.0404 74.1899 13.0852 74.1534 13.1221C74.1169 13.1589 74.0723 13.1867 74.0232 13.2033C73.974 13.2199 73.9217 13.2249 73.8703 13.2178H72.7866V13.2183ZM101.47 5.96086C101.012 6.48675 100.783 7.3278 100.783 8.48377V8.72517C100.783 9.85354 101.018 10.6961 101.479 11.1888C101.767 11.4727 102.113 11.6908 102.494 11.8278C102.874 11.9648 103.279 12.0174 103.682 11.9821C104.248 11.9744 104.809 11.8867 105.35 11.7208C105.441 11.6937 105.535 11.6756 105.63 11.6667C105.792 11.6667 105.87 11.79 105.87 12.0363V12.5289C105.88 12.6522 105.854 12.7749 105.797 12.8838C105.719 12.98 105.615 13.0499 105.497 13.0862C104.827 13.3607 104.107 13.4947 103.383 13.4801C101.911 13.4801 100.807 13.0612 100.032 12.224C99.2569 11.3858 98.8742 10.1736 98.8742 8.58719C98.8742 7.00051 99.2716 5.79348 100.071 4.93102C100.512 4.48811 101.041 4.14395 101.625 3.92139C102.209 3.69884 102.833 3.60297 103.457 3.64016C104.127 3.64151 104.791 3.76166 105.419 3.99505C105.53 4.02806 105.63 4.09099 105.708 4.17714C105.772 4.29113 105.801 4.42164 105.792 4.55163V5.04424C105.792 5.2908 105.708 5.41409 105.551 5.41409C105.45 5.40913 105.349 5.39092 105.252 5.35992C104.752 5.21291 104.233 5.13812 103.712 5.13812C102.682 5.17268 101.936 5.43369 101.474 5.96086H101.47ZM96.6894 4.15289C96.8663 4.1271 97.0306 4.25116 97.0557 4.42963C97.06 4.45878 97.0608 4.48869 97.0567 4.51835V13.1058C97.0641 13.1559 97.0597 13.207 97.0439 13.2551C97.0281 13.3031 97.0013 13.3469 96.9656 13.3828C96.93 13.4188 96.8865 13.4459 96.8385 13.4621C96.7906 13.4783 96.7395 13.4831 96.6894 13.4762H95.6119C95.5696 13.4816 95.5266 13.4786 95.4855 13.4674C95.4443 13.4562 95.4058 13.437 95.3721 13.4109C95.3384 13.3848 95.3102 13.3523 95.289 13.3153C95.2679 13.2782 95.2543 13.2374 95.249 13.1951C95.2448 13.1655 95.245 13.1354 95.2495 13.1058V4.52326C95.2421 4.47384 95.2464 4.42339 95.262 4.37592C95.2776 4.32845 95.304 4.28526 95.3392 4.24979C95.3743 4.21431 95.4173 4.18753 95.4646 4.17156C95.512 4.15559 95.5624 4.15088 95.6119 4.15779L96.6894 4.15263V4.15289ZM97.0103 0.580539C97.4224 1.06542 97.4224 1.79067 97.0103 2.27554C96.7729 2.48117 96.4693 2.59436 96.1553 2.59436C95.8412 2.59436 95.5377 2.48117 95.3003 2.27554C94.8822 1.79376 94.8822 1.06232 95.3003 0.580539C95.5377 0.374908 95.8412 0.261719 96.1553 0.261719C96.4693 0.261719 96.7729 0.374908 97.0103 0.580539Z" fill="white"/>
</svg>
