<svg width="104" height="17" viewBox="0 0 104 17" fill="none" xmlns="http://www.w3.org/2000/svg">
<path d="M76.2104 6.80297C75.8238 8.76649 75.5308 11.1596 75.3767 12.149H75.268C75.1442 11.1294 74.8512 8.74834 74.4494 6.8181L73.4617 2.01367H70.4531V14.9778H72.3199V4.29184L72.5041 5.29024L74.4011 14.9778H76.2678L78.1346 5.29024L78.3339 4.28579V10.7088V14.9778H80.2007V2.01367H77.1619L76.2104 6.80297Z" fill="white"/>
<path d="M85.2512 13.0292C85.082 13.3832 84.7105 13.6313 84.342 13.6313C83.91 13.6313 83.7409 13.2924 83.7409 12.4574V5.50488H81.6113V12.5814C81.6113 14.3271 82.1822 15.1319 83.4479 15.1319C84.3118 15.1319 85.0065 14.7446 85.4838 13.8188H85.5291L85.7133 14.9776H87.3807V5.50488H85.2512V13.0292Z" fill="white"/>
<path d="M91.4975 9.24395C90.8028 8.73265 90.3708 8.3938 90.3708 7.65256C90.3708 7.12613 90.6185 6.83266 91.2045 6.83266C91.8056 6.83266 92.008 7.25017 92.0231 8.67214L93.8113 8.59348C93.9503 6.2911 93.1951 5.33203 91.2347 5.33203C89.4133 5.33203 88.5192 6.15193 88.5192 7.83409C88.5192 9.36497 89.2592 10.0578 90.4644 10.9715C91.4975 11.7763 92.0986 12.224 92.0986 12.8715C92.0986 13.3646 91.7905 13.7065 91.2498 13.7065C90.6185 13.7065 90.247 13.1044 90.3406 12.0546L88.5343 12.0849C88.2564 14.0484 89.0448 15.192 91.1411 15.192C92.9776 15.192 93.9321 14.3418 93.9321 12.6415C93.9352 11.0986 93.1649 10.4783 91.4975 9.24395Z" fill="white"/>
<path d="M97.1433 5.50488H95.1074V14.9776H97.1433V5.50488Z" fill="white"/>
<path d="M96.1403 1.76562C95.3549 1.76562 94.9834 2.05909 94.9834 3.07867C94.9834 4.12851 95.3549 4.39172 96.1403 4.39172C96.9438 4.39172 97.2972 4.12851 97.2972 3.07867C97.2972 2.10448 96.9438 1.76562 96.1403 1.76562Z" fill="white"/>
<path d="M103.994 11.5619L102.127 11.4681C102.127 13.1382 101.943 13.6767 101.309 13.6767C100.678 13.6767 100.569 13.0747 100.569 11.1111V9.27166C100.569 7.37167 100.693 6.7696 101.324 6.7696C101.91 6.7696 102.064 7.34141 102.064 9.10223L103.916 8.97819C104.04 7.51084 103.855 6.50639 103.284 5.93458C102.868 5.51706 102.236 5.31738 101.357 5.31738C99.2912 5.31738 98.4424 6.43075 98.4424 9.55V10.8782C98.4424 14.0912 99.1673 15.1259 101.282 15.1259C102.176 15.1259 102.792 14.9414 103.209 14.539C103.81 13.9883 104.04 13.0293 103.994 11.5619Z" fill="white"/>
<path d="M31.3177 14.6992C30.8918 14.4118 30.5867 13.964 30.4085 13.3559C30.2272 12.7478 30.1396 11.94 30.1396 10.9295V9.55293C30.1396 8.53335 30.2424 7.71345 30.4478 7.09626C30.6532 6.47906 30.9733 6.02827 31.4113 5.74388C31.8493 5.45948 32.4233 5.32031 33.1331 5.32031C33.8339 5.32031 34.3927 5.46553 34.8156 5.75295C35.2385 6.04037 35.5466 6.49117 35.7399 7.10533C35.9363 7.7195 36.0329 8.53335 36.0329 9.55595V10.9325C36.0329 11.943 35.9363 12.7539 35.746 13.368C35.5557 13.9822 35.2476 14.43 34.8216 14.7113C34.3957 14.9957 33.8158 15.1349 33.0848 15.1349C32.3326 15.1319 31.7436 14.9867 31.3177 14.6992ZM33.7101 13.2168C33.8279 12.9082 33.8883 12.4029 33.8883 11.701V8.74816C33.8883 8.06743 33.8279 7.57125 33.7101 7.25661C33.5922 6.94196 33.3838 6.78463 33.0848 6.78463C32.7978 6.78463 32.5924 6.94196 32.4746 7.25661C32.3568 7.57125 32.2964 8.06743 32.2964 8.74816V11.701C32.2964 12.4029 32.3538 12.9051 32.4655 13.2168C32.5773 13.5254 32.7827 13.6797 33.0818 13.6797C33.3808 13.6797 33.5892 13.5254 33.7101 13.2168Z" fill="white"/>
<path d="M64.089 10.9505V11.4285C64.089 12.0366 64.1071 12.4935 64.1434 12.796C64.1796 13.0986 64.2552 13.3225 64.3669 13.4616C64.4787 13.6008 64.6539 13.6704 64.8925 13.6704C65.2097 13.6704 65.4302 13.5463 65.548 13.2983C65.6658 13.0502 65.7292 12.6387 65.7413 12.0608L67.5778 12.1698C67.5869 12.2514 67.5929 12.3664 67.5929 12.5086C67.5929 13.383 67.3543 14.0395 66.874 14.4721C66.3968 14.9048 65.7202 15.1226 64.8442 15.1226C63.796 15.1226 63.059 14.7928 62.6391 14.1333C62.2162 13.4737 62.0078 12.4542 62.0078 11.0745V9.41962C62.0078 7.99765 62.2253 6.95992 62.6633 6.30642C63.1013 5.65292 63.8474 5.32617 64.9076 5.32617C65.6386 5.32617 66.1974 5.45929 66.5901 5.72856C66.9798 5.99782 67.2546 6.41231 67.4147 6.9811C67.5748 7.54686 67.6534 8.33045 67.6534 9.32885V10.9505H64.089ZM64.3579 6.96294C64.2491 7.09606 64.1766 7.31692 64.1434 7.61947C64.1071 7.92202 64.089 8.38491 64.089 9.0021V9.68283H65.6477V9.0021C65.6477 8.39399 65.6265 7.93412 65.5873 7.61947C65.545 7.30482 65.4725 7.08396 65.3637 6.95387C65.255 6.82377 65.0889 6.76024 64.8623 6.76024C64.6327 6.76326 64.4666 6.82982 64.3579 6.96294Z" fill="white"/>
<path d="M26.1315 10.7725L23.709 2.01074H25.8234L26.6722 5.98317C26.8897 6.96342 27.0468 7.79542 27.1495 8.48522H27.2099C27.2824 7.99207 27.4425 7.16007 27.6871 5.9983L28.5661 2.01074H30.6806L28.2278 10.7725V14.9748H26.1285V10.7725H26.1315Z" fill="white"/>
<path d="M42.9051 5.50537V14.9781H41.2378L41.0535 13.8193H41.0082C40.5551 14.6937 39.8754 15.1324 38.9723 15.1324C38.344 15.1324 37.8818 14.9267 37.5828 14.5152C37.2838 14.1037 37.1357 13.4593 37.1357 12.5819V5.50537H39.2653V12.4609C39.2653 12.8845 39.3106 13.184 39.4042 13.3655C39.4979 13.547 39.6519 13.6348 39.8664 13.6348C40.0506 13.6348 40.2289 13.5773 40.398 13.4654C40.5672 13.3534 40.694 13.2082 40.7756 13.0327V5.50537H42.9051Z" fill="white"/>
<path d="M53.827 5.50537V14.9781H52.1596L51.9754 13.8193H51.9301C51.477 14.6937 50.7973 15.1324 49.8942 15.1324C49.2659 15.1324 48.8037 14.9267 48.5047 14.5152C48.2056 14.1037 48.0576 13.4593 48.0576 12.5819V5.50537H50.1872V12.4609C50.1872 12.8845 50.2325 13.184 50.3261 13.3655C50.4197 13.547 50.5738 13.6348 50.7883 13.6348C50.9725 13.6348 51.1507 13.5773 51.3199 13.4654C51.4891 13.3534 51.6159 13.2082 51.6975 13.0327V5.50537H53.827Z" fill="white"/>
<path d="M48.693 3.72618H46.5786V14.9779H44.4943V3.72618H42.3799V2.01074H48.693V3.72618Z" fill="white"/>
<path d="M60.8747 7.01787C60.7448 6.42186 60.5364 5.98922 60.2494 5.71995C59.9625 5.45069 59.5637 5.31756 59.0623 5.31756C58.6726 5.31756 58.3072 5.42951 57.9658 5.65037C57.6275 5.87122 57.3647 6.16167 57.1774 6.52472H57.1623V1.53271H55.1113V14.9779H56.8693L57.0868 14.0823H57.1321C57.2952 14.403 57.5429 14.6541 57.8722 14.8387C58.2014 15.0232 58.5669 15.117 58.9687 15.117C59.6876 15.117 60.2192 14.7842 60.5575 14.1217C60.8958 13.456 61.068 12.4183 61.068 11.0085V9.51085C61.068 8.44589 61.0046 7.61691 60.8747 7.01787ZM58.9234 10.8814C58.9234 11.5712 58.8962 12.1127 58.8388 12.503C58.7814 12.8933 58.6878 13.1717 58.5518 13.3381C58.4189 13.5045 58.2377 13.5861 58.0111 13.5861C57.8359 13.5861 57.6728 13.5438 57.5248 13.4621C57.3768 13.3804 57.256 13.2564 57.1623 13.09V7.71373C57.2348 7.45656 57.3587 7.24478 57.5339 7.08141C57.7091 6.91803 57.8994 6.83332 58.1048 6.83332C58.3223 6.83332 58.4884 6.91803 58.6062 7.08746C58.724 7.25688 58.8056 7.5443 58.8539 7.94669C58.8992 8.34907 58.9234 8.92089 58.9234 9.66212V10.8814Z" fill="white"/>
<path fill-rule="evenodd" clip-rule="evenodd" d="M19.2182 1.38732C20.1486 1.63843 20.8795 2.37059 21.1272 3.29941C21.5773 4.98459 21.5773 8.50017 21.5773 8.50017C21.5773 8.50017 21.5773 12.0158 21.1272 13.7009C20.8765 14.6328 20.1455 15.3649 19.2182 15.613C17.5357 16.0638 10.7876 16.0638 10.7876 16.0638C10.7876 16.0638 4.04257 16.0638 2.36009 15.613C1.42973 15.3619 0.698741 14.6298 0.45105 13.7009C0.000976562 12.0158 0.000976562 8.50017 0.000976562 8.50017C0.000976562 8.50017 0.000976562 4.98459 0.45105 3.29941C0.701762 2.36757 1.43275 1.6354 2.36009 1.38732C4.04257 0.936523 10.7876 0.936523 10.7876 0.936523C10.7876 0.936523 17.5357 0.936523 19.2182 1.38732ZM14.2362 8.49979L8.62988 5.25952V11.7401L14.2362 8.49979Z" fill="white"/>
</svg>
